<svg xmlns="http://www.w3.org/2000/svg" id="Capa_1" height="512" viewBox="0 0 512 512" width="512"><g><path d="m177 430h-42c-24.813 0-45-20.187-45-45v-190c0-8.284-6.716-15-15-15s-15 6.716-15 15v190c0 41.355 33.645 75 75 75h42c8.284 0 15-6.716 15-15s-6.716-15-15-15z" fill="#e2dff4"></path><path d="m177 430h-42c-24.813 0-45-20.187-45-45v-190c0-8.284-6.716-15-15-15v249.948c13.695 18.234 35.492 30.052 60 30.052h42c8.284 0 15-6.716 15-15s-6.716-15-15-15z" fill="#bebcdd"></path><g><path d="m367 0h-60c-41.355 0-75 33.645-75 75v60h210v-60c0-41.355-33.645-75-75-75z" fill="#7a7a93"></path></g><path d="m442 75c0-41.355-33.645-75-75-75h-30v135h105z" fill="#616173"></path><path d="m397 300h-120c-63.513 0-115 51.487-115 115v82c0 8.284 6.716 15 15 15h320c8.284 0 15-6.716 15-15v-82c0-63.513-51.487-115-115-115z" fill="#00ff93"></path><path d="m397 300h-60v212h160c8.284 0 15-6.716 15-15v-82c0-63.513-51.487-115-115-115z" fill="#00ddc1"></path><path d="m297 266.854v43.146c0 22.091 17.909 40 40 40 22.091 0 40-17.909 40-40v-43.146z" fill="#ffcbbc"></path><g><path d="m337 266.854v83.146c22.091 0 40-17.909 40-40v-43.146z" fill="#ffbca7"></path></g><g><path d="m442 185h-30v-60h30c16.569 0 30 13.431 30 30 0 16.569-13.431 30-30 30z" fill="#ffbca7"></path><path d="m232 185h31v-60h-31c-16.569 0-30 13.431-30 30 0 16.569 13.431 30 30 30z" fill="#ffcbbc"></path></g><path d="m412.84 122.227-43.07-28.713c-6.515-4.344-15.341-2.995-20.111 3.215-13.536 17.62-34.649 28.271-57.38 28.271h-40.279v78.933c0 46.869 37.488 85.717 84.356 86.065 47.239.35 85.644-37.839 85.644-84.998v-80c-3.26 0-6.447-.965-9.16-2.773z" fill="#ffddce"></path><path d="m412.84 122.227-43.127-28.751c-6.453-4.302-15.459-2.684-20.205 3.45-3.659 4.73-7.87 8.949-12.508 12.595v180.479c46.944 0 85-38.056 85-85v-80c-3.26 0-6.447-.965-9.16-2.773z" fill="#ffcbbc"></path><path d="m95 240h-40c-8.284 0-15 6.716-15 15s6.716 15 15 15h40c8.284 0 15-6.716 15-15s-6.716-15-15-15z" fill="#f9f9f9"></path><path d="m95 270c8.284 0 15-6.716 15-15s-6.716-15-15-15h-20v30z" fill="#e2dff4"></path><g><g><path d="m150 45c0-24.813-20.187-45-45-45h-60c-24.813 0-45 20.187-45 45v30l75 30 75-30z" fill="#f9f9f9"></path></g><path d="m150 45c0-24.813-20.187-45-45-45h-30v105l75-30z" fill="#e2dff4"></path><path d="m0 75v90c0 24.813 20.187 45 45 45h60c24.813 0 45-20.187 45-45v-90z" fill="#9bfbff"></path><path d="m75 75v135h30c24.813 0 45-20.187 45-45v-90z" fill="#7dd5f4"></path></g></g></svg>